# xmcd
#
# Track frame offsets: 
#        150
#        16165
#        30063
#        45807
#        60150
#        77507
#        90931
#        103059
#        120754
#        133068
#        144980
#        156565
#        169730
#        188183
#        202666
#        216111
#        229793
#        258633
#        272928
#        288567
#        305934
#
# Disc length: 4373 seconds
#
# Revision: 0
# Processed by: cddbd v1.5.2PL0 Copyright (c) Steve Scherf et al.
# Submitted via: ExactAudioCopy v0.99pb4
#
DISCID=11111315
DTITLE=Oscar Benton Blues Band - Bensonhurst Blues The Best of Oscar B
DTITLE=enton Blues Band
DYEAR=2009
DGENRE=Blues
TTITLE0=Bensonhurst Blues
TTITLE1=He's Crazy
TTITLE2=Not The Same Dream Anymore
TTITLE3=Wooly Booly Boogie
TTITLE4=Roll On Sweet Mississippi
TTITLE5=Josie
TTITLE6=Never Never Leave Me
TTITLE7=Busted
TTITLE8=My Petite Fleur
TTITLE9=All I Ever Need Is You
TTITLE10=Come Back
TTITLE11=Stop What You're Doing
TTITLE12=How Can I Just Start Again
TTITLE13=Rock'n'Roller
TTITLE14=You And I
TTITLE15=The Long And Winding Road
TTITLE16=St. Louis Blues
TTITLE17=Basin Street Blues
TTITLE18=I Believe In Love
TTITLE19=Baby Help Me
TTITLE20=If You Go Away
EXTD=
EXTT0=
EXTT1=
EXTT2=
EXTT3=
EXTT4=
EXTT5=
EXTT6=
EXTT7=
EXTT8=
EXTT9=
EXTT10=
EXTT11=
EXTT12=
EXTT13=
EXTT14=
EXTT15=
EXTT16=
EXTT17=
EXTT18=
EXTT19=
EXTT20=
PLAYORDER=
